<svg width="113" height="63" viewBox="0 0 113 63" fill="none" xmlns="http://www.w3.org/2000/svg">
<path d="M96.3424 53.1574H13.2513C11.7473 53.1574 10.5278 51.9489 10.5278 50.4584C10.5278 48.9678 11.7473 47.7593 13.2513 47.7593H96.3424C97.8465 47.7593 99.066 48.9678 99.066 50.4584C99.066 51.9489 97.8465 53.1574 96.3424 53.1574Z" fill="#F2F2F3"/>
<path d="M90.2928 53.1574H19.3016C17.7976 53.1574 16.5781 51.9489 16.5781 50.4584C16.5781 48.9678 17.7976 47.7593 19.3016 47.7593H90.2928C91.7969 47.7593 93.0163 48.9678 93.0163 50.4584C93.0163 51.9489 91.7969 53.1574 90.2928 53.1574Z" fill="url(#paint0_linear_99_598)"/>
<path d="M86.8809 51.0577C86.9264 51.0235 86.9531 51.0126 86.9656 50.9929C87.1979 50.6232 87.4438 50.2608 87.6515 49.8782C87.7205 49.7507 87.6886 49.5703 87.7043 49.4142C87.7158 49.2991 87.6938 49.1664 87.8832 49.1706C88.0491 49.1742 88.1427 49.2245 88.1495 49.4085C88.1662 49.8767 88.1955 50.3448 88.2196 50.813C88.2233 50.883 88.2269 50.9535 88.2306 51.0235C88.2473 51.0281 88.2641 51.0333 88.2808 51.038C88.4095 50.8125 88.5387 50.5875 88.6674 50.3619C88.861 50.0234 89.0498 49.6823 89.2513 49.3489C89.2942 49.2779 89.3773 49.2048 89.4548 49.1871C89.5479 49.1659 89.6541 49.2032 89.7545 49.2157C89.7195 49.2971 89.6923 49.3831 89.6473 49.4588C89.2382 50.154 88.8186 50.8436 88.4195 51.5445C88.3159 51.726 88.183 51.7493 88.0067 51.7374C87.8628 51.7275 87.8613 51.6238 87.8524 51.5258C87.822 51.1972 87.7953 50.8685 87.7666 50.5398C87.7645 50.5159 87.7561 50.4926 87.7394 50.421C87.6677 50.5278 87.6164 50.6004 87.5693 50.6761C87.4014 50.9457 87.2356 51.2163 87.0676 51.4859C87.0399 51.531 87.009 51.5741 86.9777 51.6166C86.8741 51.7591 86.7145 51.7649 86.5822 51.7146C86.5152 51.6892 86.4613 51.5512 86.4561 51.4605C86.4132 50.7487 86.3807 50.0364 86.3535 49.3235C86.352 49.2763 86.4189 49.1856 86.4529 49.1861C86.5665 49.1877 86.725 49.112 86.7747 49.2888C86.8029 49.3888 86.804 49.4977 86.8082 49.6029C86.8259 50.0249 86.8395 50.4475 86.8563 50.87C86.8589 50.925 86.8709 50.9794 86.8809 51.0577Z" fill="white"/>
<path d="M50.2672 50.6326C50.3243 50.5667 50.3656 50.5195 50.4069 50.4718C50.7329 50.096 51.0593 49.7206 51.3836 49.3437C51.515 49.1908 51.6766 49.1508 51.8927 49.2063C51.8869 49.268 51.889 49.3318 51.8733 49.3904C51.6871 50.0923 51.5003 50.7948 51.3088 51.4953C51.2403 51.7462 51.1252 51.7882 50.8453 51.6715C50.9756 51.1609 51.1064 50.6476 51.2377 50.1343C51.2105 50.1146 51.1828 50.0949 51.1556 50.0752C51.1189 50.1359 51.0902 50.2028 51.0446 50.2562C50.8009 50.5444 50.5581 50.8337 50.3049 51.1142C50.1511 51.2848 50.0428 51.2609 49.9633 51.0432C49.8775 50.8078 49.8069 50.5662 49.7284 50.3282C49.7043 50.2557 49.6766 50.1846 49.651 50.1126C49.6332 50.112 49.6154 50.111 49.5976 50.1105C49.5474 50.2842 49.4946 50.4568 49.4464 50.631C49.3617 50.9364 49.2795 51.2428 49.1969 51.5492C49.1665 51.6627 49.1085 51.7343 48.9761 51.7358C48.7752 51.7389 48.736 51.7026 48.7878 51.5061C48.974 50.7969 49.1655 50.0892 49.3554 49.381C49.3852 49.2691 49.4145 49.1638 49.5704 49.169C49.7143 49.1737 49.7833 49.2442 49.8252 49.3733C49.9481 49.7502 50.0789 50.1245 50.2071 50.4998C50.2202 50.5356 50.2385 50.5688 50.2672 50.6326Z" fill="white"/>
<path d="M75.4684 50.0825C75.2126 50.3765 74.9526 50.6668 74.7025 50.9654C74.3965 51.3304 74.3656 51.333 74.1919 50.9068C74.0831 50.6398 73.9952 50.364 73.8592 50.0877C73.7613 50.447 73.6635 50.8057 73.5657 51.165C73.5291 51.2988 73.5066 51.4382 73.4527 51.5647C73.4239 51.6321 73.3512 51.7115 73.2842 51.728C73.0514 51.7856 72.9887 51.699 73.0509 51.4699C73.2356 50.7943 73.4119 50.1167 73.5913 49.4401C73.6248 49.3147 73.63 49.1763 73.8236 49.1757C74.0083 49.1757 74.0779 49.2717 74.1244 49.4298C74.2379 49.8155 74.363 50.1976 74.4948 50.617C74.5639 50.5605 74.623 50.5258 74.6654 50.4765C74.9866 50.1053 75.3093 49.7357 75.6211 49.3572C75.7744 49.1716 75.957 49.1467 76.1929 49.1996C76.115 49.4852 76.0376 49.7621 75.9638 50.04C75.8309 50.5377 75.6996 51.0359 75.5683 51.5341C75.538 51.6503 75.494 51.7405 75.3449 51.74C75.131 51.7389 75.0922 51.6824 75.1503 51.4771C75.279 51.0214 75.3962 50.5621 75.5181 50.1043C75.5019 50.097 75.4851 50.0898 75.4684 50.0825Z" fill="white"/>
<path d="M53.5809 50.4667C53.6128 50.5019 53.6274 50.5247 53.6478 50.5398C54.0481 50.842 53.9947 51.3423 53.5207 51.5476C53.3188 51.6352 53.0886 51.671 52.8668 51.6964C52.6031 51.727 52.3353 51.7208 52.069 51.7312C51.9183 51.7369 51.8644 51.6767 51.9063 51.5248C52.1025 50.8062 52.2903 50.0851 52.4933 49.3681C52.5142 49.2945 52.6157 49.1928 52.6821 49.1908C52.9672 49.182 53.255 49.1887 53.538 49.2219C53.8414 49.2577 54.0365 49.4458 54.0857 49.6952C54.1349 49.9461 54.0041 50.1976 53.7457 50.3531C53.6907 50.3863 53.6405 50.4257 53.5809 50.4667ZM52.4436 51.3895C52.7025 51.3646 52.9301 51.3682 53.1425 51.3148C53.3219 51.2697 53.4632 51.1277 53.4334 50.9224C53.4203 50.8301 53.3376 50.6974 53.2597 50.6751C53.0855 50.6258 52.895 50.6315 52.7104 50.6238C52.6837 50.6227 52.6377 50.6637 52.6293 50.6937C52.5681 50.9073 52.5142 51.122 52.4436 51.3895ZM52.7564 50.2603C53.1247 50.3381 53.3763 50.278 53.5192 50.0944C53.617 49.9684 53.6212 49.7237 53.527 49.6361C53.4307 49.5464 53.0117 49.4961 52.9385 49.5677C52.9212 49.5848 52.9113 49.6123 52.905 49.6366C52.8553 49.8399 52.8077 50.0436 52.7564 50.2603Z" fill="white"/>
<path d="M29.9685 50.9421C30.1087 50.419 30.2374 49.9415 30.3651 49.464C30.4441 49.1674 30.5178 49.127 30.8595 49.2115C30.7512 49.6169 30.6434 50.0224 30.5346 50.4273C30.4352 50.7969 30.3327 51.166 30.2369 51.5367C30.2055 51.6586 30.1553 51.7389 30.0114 51.74C29.8686 51.741 29.7729 51.7006 29.7227 51.5538C29.56 51.0795 29.3884 50.6077 29.2194 50.1359C29.2047 50.0949 29.1817 50.0566 29.1346 49.9591C29.0379 50.3065 28.9557 50.6009 28.8736 50.8949C28.8113 51.1173 28.7533 51.3413 28.6858 51.5621C28.6377 51.7203 28.4687 51.7934 28.3238 51.7135C28.2887 51.6943 28.2599 51.6135 28.2709 51.572C28.4702 50.8119 28.6743 50.0535 28.8846 49.2965C28.8982 49.2468 28.9808 49.1705 29.0133 49.1788C29.1273 49.2074 29.2785 49.2379 29.3329 49.3209C29.436 49.4775 29.4852 49.6703 29.5505 49.8502C29.6635 50.1608 29.7708 50.4729 29.8827 50.7834C29.8979 50.8239 29.9246 50.8612 29.9685 50.9421Z" fill="white"/>
<path d="M63.1517 49.9715C63.0073 50.519 62.8828 51.0157 62.741 51.5082C62.7165 51.5932 62.6343 51.7032 62.5574 51.7244C62.3215 51.7887 62.2587 51.7037 62.323 51.4714C62.5124 50.7845 62.696 50.0955 62.8818 49.4075C62.9105 49.3012 62.9126 49.1788 63.0727 49.1721C63.2359 49.1654 63.3594 49.2089 63.4169 49.3759C63.5755 49.8378 63.7371 50.2992 63.8977 50.7606C63.9145 50.8083 63.9333 50.855 63.9987 50.9073C64.0332 50.7995 64.0709 50.6927 64.1007 50.5838C64.2121 50.1763 64.3147 49.7662 64.4376 49.3619C64.4601 49.2877 64.5558 49.1975 64.6312 49.184C64.8676 49.1405 64.9011 49.1923 64.8383 49.4256C64.6558 50.1012 64.4737 50.7767 64.2927 51.4527C64.2555 51.5917 64.2174 51.7255 64.0374 51.7363C63.8423 51.7483 63.7727 51.615 63.7188 51.4652C63.5687 51.0494 63.4196 50.6336 63.2678 50.2183C63.2417 50.1483 63.2045 50.0825 63.1517 49.9715Z" fill="white"/>
<path d="M39.6186 51.7296C39.5045 51.7296 39.3643 51.7306 39.2241 51.7291C38.9939 51.7265 38.9646 51.6897 39.0217 51.4719C39.1634 50.9286 39.3057 50.3858 39.4491 49.843C39.493 49.6771 39.5265 49.5065 39.5919 49.3494C39.6207 49.2805 39.7138 49.197 39.7823 49.1928C40.0345 49.1773 40.2893 49.1799 40.5419 49.197C41.2654 49.2457 41.5636 49.9021 41.424 50.5232C41.2691 51.2132 40.7381 51.6529 40.024 51.7C39.8979 51.7083 39.7713 51.7187 39.6186 51.7296ZM39.5228 51.3682C39.8451 51.4045 40.1297 51.3931 40.3881 51.2547C40.8025 51.0333 41.0159 50.5216 40.928 50.0073C40.8642 49.634 40.4075 49.3919 40.0606 49.5516C40.0245 49.5682 39.989 49.6133 39.9785 49.6522C39.8273 50.2121 39.6803 50.7736 39.5228 51.3682Z" fill="white"/>
<path d="M72.8497 50.209C72.8471 50.8451 72.3626 51.4978 71.7589 51.6783C71.0574 51.8882 70.4186 51.4139 70.4244 50.687C70.4296 50.0151 70.914 49.3945 71.5659 49.225C72.2575 49.0451 72.8528 49.5008 72.8497 50.209ZM70.9308 50.6367C70.9266 50.9364 70.9815 51.1349 71.1918 51.2531C71.4162 51.3791 71.6365 51.32 71.8337 51.1961C72.1915 50.9716 72.3291 50.6237 72.3354 50.2183C72.3391 49.97 72.2878 49.7403 72.0288 49.6252C71.8034 49.5246 71.5115 49.5931 71.3132 49.7859C71.0516 50.0405 70.9433 50.3578 70.9308 50.6367Z" fill="white"/>
<path d="M38.8888 50.1929C38.8898 50.8394 38.4331 51.4693 37.8168 51.6715C37.1702 51.8836 36.5508 51.4906 36.477 50.8213C36.397 50.0944 36.9845 49.3256 37.7117 49.2042C38.3693 49.0954 38.8877 49.5309 38.8888 50.1929ZM38.3855 50.1784C38.3797 49.9643 38.3295 49.7351 38.0789 49.632C37.8236 49.5272 37.5788 49.5786 37.3769 49.7683C37.0651 50.0607 36.9453 50.4309 36.9803 50.8456C37.0096 51.1904 37.2942 51.3781 37.6348 51.2993C38.0732 51.1977 38.3776 50.7539 38.3855 50.1784Z" fill="white"/>
<path d="M85.9747 50.2334C85.9684 50.8648 85.5101 51.4797 84.9043 51.67C84.1505 51.9069 83.4688 51.3511 83.5755 50.5589C83.6624 49.914 84.0129 49.4469 84.6584 49.2395C85.3553 49.0166 85.982 49.493 85.9747 50.2334ZM85.4698 50.1929C85.4688 49.9446 85.3945 49.7699 85.2475 49.6677C85.0607 49.5381 84.716 49.5594 84.5172 49.7242C84.1484 50.0296 84.0186 50.4324 84.0804 50.8928C84.1212 51.1997 84.3885 51.3656 84.6945 51.3029C85.1549 51.2086 85.4725 50.7539 85.4698 50.1929Z" fill="white"/>
<path d="M55.7955 50.5486C56.3102 50.842 56.023 51.263 56.0026 51.6306C55.9942 51.7877 55.8106 51.7249 55.6992 51.7218C55.5998 51.7192 55.5093 51.6835 55.5281 51.5559C55.5511 51.3993 55.5778 51.2433 55.6071 51.0883C55.6605 50.8083 55.5972 50.7197 55.3168 50.702C54.8559 50.6735 54.9364 50.6315 54.824 51.0608C54.7805 51.2267 54.7434 51.3947 54.6947 51.5595C54.6477 51.7177 54.3699 51.8001 54.248 51.6902C54.2192 51.6643 54.2114 51.5927 54.2229 51.5497C54.418 50.8156 54.6142 50.082 54.8224 49.352C54.8418 49.2841 54.9422 49.1928 55.0065 49.1918C55.3121 49.1861 55.6207 49.1887 55.9241 49.2245C56.2537 49.2639 56.4797 49.5091 56.4991 49.7932C56.519 50.0835 56.2992 50.3796 55.9948 50.4755C55.9393 50.4915 55.886 50.5144 55.7955 50.5486ZM55.0317 50.4133C55.3079 50.3661 55.5328 50.3536 55.7384 50.2847C55.9498 50.2142 56.0518 49.872 55.9466 49.6973C55.8676 49.5661 55.3905 49.4681 55.2645 49.5583C55.2493 49.5692 55.2325 49.5858 55.2284 49.6029C55.1671 49.8487 55.1086 50.0955 55.0317 50.4133Z" fill="white"/>
<path d="M78.687 50.2126C78.6855 50.9369 78.0802 51.6363 77.3964 51.7047C76.7451 51.77 76.2895 51.3646 76.279 50.7114C76.268 50.0389 76.7378 49.4132 77.3912 49.2307C78.087 49.0368 78.6886 49.4925 78.687 50.2126ZM78.1984 50.2095C78.1744 49.9866 78.1482 49.7419 77.8877 49.6309C77.6313 49.522 77.3923 49.5874 77.1799 49.7559C77.1338 49.7927 77.0904 49.8362 77.0554 49.8829C76.8445 50.1644 76.7514 50.4817 76.7901 50.8301C76.8362 51.2464 77.1579 51.4284 77.5502 51.2604C78.0054 51.066 78.1513 50.6782 78.1984 50.2095Z" fill="white"/>
<path d="M82.6882 50.5439C83.226 50.8477 82.9163 51.2708 82.9111 51.6384C82.9106 51.6689 82.7091 51.7229 82.604 51.7166C82.5438 51.713 82.4408 51.6078 82.4429 51.5513C82.4486 51.3822 82.4931 51.2137 82.5287 51.0463C82.5731 50.8353 82.4894 50.7145 82.2718 50.7015C81.7387 50.6699 81.8538 50.6134 81.7256 51.0872C81.6843 51.2402 81.6519 51.3957 81.6079 51.5476C81.5608 51.7109 81.2987 51.7996 81.1653 51.6938C81.1366 51.671 81.1261 51.5995 81.1371 51.558C81.3322 50.8182 81.5284 50.0783 81.7377 49.3422C81.756 49.2768 81.8632 49.1939 81.9312 49.1923C82.2169 49.1845 82.5051 49.1877 82.7887 49.2193C83.1606 49.2608 83.3871 49.5013 83.4081 49.8321C83.4248 50.0991 83.1816 50.3915 82.8682 50.4827C82.8248 50.4947 82.7834 50.5113 82.6882 50.5439ZM81.9375 50.4091C82.1949 50.3723 82.3994 50.3614 82.5925 50.3096C82.773 50.2614 82.8881 50.1157 82.8802 49.928C82.8755 49.8176 82.8248 49.6387 82.7531 49.6149C82.5731 49.5552 82.3691 49.5651 82.1745 49.5532C82.1588 49.5521 82.1311 49.5998 82.1243 49.6289C82.0662 49.8642 82.0113 50.0996 81.9375 50.4091Z" fill="white"/>
<path d="M80.395 50.5268C80.4295 50.5683 80.4452 50.5999 80.4708 50.616C80.7355 50.7865 80.7073 51.0287 80.6429 51.2822C80.6267 51.3459 80.6157 51.4113 80.61 51.4766C80.5901 51.7016 80.5268 51.7529 80.3081 51.7265C80.102 51.7016 80.1167 51.5658 80.1386 51.4185C80.1616 51.262 80.1805 51.1043 80.1977 50.9473C80.2025 50.9016 80.2051 50.8187 80.1904 50.8145C80.0204 50.7653 79.8478 50.7223 79.6741 50.6886C79.5741 50.6694 79.4936 50.6969 79.4659 50.8166C79.4109 51.0546 79.3508 51.2915 79.288 51.5279C79.2378 51.7172 79.0228 51.8125 78.8538 51.712C78.8161 51.6897 78.7905 51.5984 78.803 51.5502C78.9961 50.8161 79.1933 50.083 79.4015 49.353C79.4209 49.2862 79.5218 49.1975 79.5877 49.1954C79.8734 49.1856 80.1622 49.184 80.4452 49.2177C80.8323 49.2633 81.0641 49.4935 81.0766 49.7942C81.0913 50.1463 80.8684 50.4081 80.4781 50.4978C80.4583 50.5019 80.44 50.5102 80.395 50.5268ZM79.6212 50.3407C79.6369 50.364 79.6526 50.3873 79.6688 50.4107C79.8786 50.3702 80.0973 50.3536 80.2961 50.2831C80.5315 50.1991 80.6388 49.9047 80.5388 49.7144C80.4656 49.5749 80.011 49.4578 79.8661 49.5449C79.841 49.5599 79.8179 49.5915 79.8106 49.62C79.7452 49.8596 79.684 50.1006 79.6212 50.3407Z" fill="white"/>
<path d="M66.0597 51.7203C65.3247 51.7151 64.879 51.178 65.0108 50.4563C65.1296 49.8041 65.6198 49.3121 66.2622 49.1991C66.6755 49.1265 67.0935 49.3219 67.2719 49.646C67.3807 49.8435 67.1997 49.8689 67.1154 49.9441C67.0145 50.0343 66.9376 49.9695 66.8732 49.8741C66.6477 49.5397 66.2386 49.4852 65.9268 49.7429C65.5857 50.0244 65.4607 50.3941 65.4884 50.8192C65.5062 51.0945 65.6909 51.2822 65.9478 51.3154C66.2596 51.3553 66.5316 51.2117 66.6221 50.9509C66.6655 50.8265 66.6865 50.6942 66.7335 50.5714C66.7534 50.519 66.8047 50.4589 66.8554 50.4418C67.1222 50.3521 67.2038 50.4226 67.1604 50.6922C67.1489 50.7637 67.1395 50.8358 67.1212 50.9063C66.9752 51.4776 66.653 51.7244 66.0597 51.7203Z" fill="white"/>
<path d="M32.3902 49.1866C32.7537 49.1825 33.03 49.3365 33.2277 49.6372C33.313 49.7668 33.2575 49.8336 33.1393 49.901C33.0232 49.9669 32.9264 50.0099 32.8301 49.8762C32.5837 49.535 32.2034 49.4873 31.8717 49.7517C31.5369 50.0187 31.3637 50.5641 31.4841 50.9722C31.5484 51.1899 31.7488 51.3226 32.0067 51.318C32.3457 51.3117 32.5461 51.1785 32.613 50.9094C32.6366 50.8135 32.6334 50.7067 32.6758 50.6212C32.7119 50.5481 32.7867 50.4677 32.8615 50.4449C33.109 50.3697 33.1744 50.4366 33.1299 50.6891C33.1137 50.7798 33.0969 50.8711 33.0708 50.9597C32.8584 51.6809 31.9434 51.9857 31.3402 51.5186C30.9892 51.2469 30.8934 50.8622 30.9813 50.4324C31.1278 49.7201 31.7305 49.1871 32.3902 49.1866Z" fill="white"/>
<path d="M56.248 51.6736C56.5672 51.1536 56.8758 50.6466 57.1892 50.1426C57.3603 49.8678 57.5376 49.5967 57.7165 49.3271C57.8081 49.1892 58.0445 49.1187 58.1894 49.1908C58.2308 49.2115 58.2674 49.2794 58.2721 49.3292C58.3443 50.0778 58.4128 50.8264 58.473 51.5761C58.4767 51.6238 58.4081 51.7187 58.3715 51.7197C58.258 51.7223 58.1084 51.8011 58.0424 51.6342C58.0189 51.5746 58.0205 51.5046 58.0163 51.4387C57.999 51.1686 57.9995 51.1691 57.7181 51.1655C57.6182 51.164 57.5151 51.1754 57.4194 51.1541C57.1154 51.0878 56.9564 51.234 56.835 51.4895C56.7037 51.7633 56.5886 51.7923 56.248 51.6736ZM57.9085 49.8144C57.8897 49.8098 57.8703 49.8051 57.8515 49.801C57.6558 50.1426 57.4607 50.4848 57.2535 50.8467C57.5182 50.8467 57.7343 50.8467 57.9629 50.8467C57.9441 50.491 57.9263 50.1525 57.9085 49.8144Z" fill="white"/>
<path d="M41.3506 51.6679C41.484 51.4564 41.6163 51.2454 41.7497 51.0349C42.1102 50.4651 42.4686 49.8943 42.8321 49.3266C42.9237 49.1835 43.1371 49.1182 43.2821 49.1897C43.3244 49.2105 43.3631 49.2773 43.3684 49.3261C43.4432 50.068 43.5117 50.8104 43.5818 51.5523C43.5912 51.6492 43.5703 51.7306 43.4505 51.7249C43.3349 51.7192 43.1837 51.7877 43.1424 51.6C43.1366 51.5741 43.133 51.5481 43.1293 51.5217C43.0817 51.1702 43.0785 51.1956 42.7144 51.151C42.3168 51.1023 42.038 51.1904 41.8863 51.5891C41.8193 51.7633 41.5938 51.7845 41.3506 51.6679ZM43.0686 50.8477C43.0482 50.4838 43.0294 50.1488 43.01 49.8139C42.9901 49.8119 42.9708 49.8093 42.9509 49.8072C42.7563 50.1463 42.5617 50.4853 42.3535 50.8477C42.6161 50.8477 42.8327 50.8477 43.0686 50.8477Z" fill="white"/>
<path d="M47.5318 50.2546C47.807 50.2546 48.0576 50.2468 48.3071 50.2598C48.3731 50.2634 48.4358 50.3313 48.4997 50.3697C48.4442 50.4495 48.3955 50.5356 48.3296 50.6051C48.3066 50.6294 48.2402 50.6149 48.1936 50.6149C47.9734 50.6154 47.7531 50.6092 47.5334 50.6186C47.4811 50.6206 47.3979 50.6647 47.3859 50.7057C47.3257 50.9136 47.2839 51.1272 47.2295 51.3677C47.5109 51.3677 47.774 51.362 48.0372 51.3703C48.135 51.3734 48.2972 51.2998 48.3003 51.4823C48.3035 51.6383 48.2104 51.7317 48.0314 51.7291C47.6443 51.7228 47.2572 51.7234 46.8706 51.7306C46.6859 51.7343 46.6545 51.6518 46.6969 51.4958C46.8915 50.7819 47.0851 50.068 47.2744 49.353C47.3037 49.2416 47.3534 49.1783 47.4769 49.1793C47.8839 49.183 48.2909 49.1773 48.6974 49.1892C48.7607 49.1913 48.8774 49.2701 48.8737 49.3038C48.8622 49.4132 48.8507 49.5521 48.677 49.5485C48.4034 49.5428 48.1298 49.5459 47.8567 49.534C47.7359 49.5288 47.6747 49.5537 47.6553 49.6848C47.6286 49.8663 47.5784 50.0452 47.5318 50.2546Z" fill="white"/>
<path d="M22.9412 50.2593C23.2007 50.2593 23.4387 50.2557 23.6768 50.2608C23.7689 50.2629 23.9012 50.2318 23.8981 50.3868C23.8955 50.5252 23.8379 50.6263 23.6674 50.6201C23.4346 50.6113 23.2007 50.6149 22.9679 50.6087C22.8664 50.6061 22.812 50.6341 22.7911 50.7446C22.7534 50.9436 22.6959 51.1386 22.6373 51.3703C22.9365 51.3703 23.2007 51.3657 23.4644 51.3729C23.5622 51.3755 23.7113 51.3159 23.7066 51.5108C23.7024 51.6814 23.6114 51.7332 23.4492 51.7301C23.0563 51.7229 22.6629 51.7275 22.27 51.7254C22.1319 51.7249 22.0603 51.6803 22.1042 51.5191C22.2946 50.8192 22.483 50.1183 22.6593 49.4142C22.7022 49.2426 22.7775 49.1747 22.958 49.1794C23.3441 49.1897 23.7312 49.1773 24.1173 49.1861C24.1837 49.1877 24.304 49.2473 24.3046 49.2825C24.3072 49.4002 24.2721 49.5247 24.1089 49.5262C23.8426 49.5283 23.5758 49.5371 23.3101 49.5252C23.1678 49.5189 23.0877 49.5376 23.0668 49.6999C23.0432 49.8813 22.9878 50.0581 22.9412 50.2593Z" fill="white"/>
<path d="M58.8975 50.7466C58.9043 49.9145 59.6702 49.1483 60.4654 49.1861C60.7934 49.2017 61.0513 49.3567 61.2224 49.6335C61.3511 49.8414 61.1188 49.8673 61.0293 49.9524C60.9462 50.0312 60.8598 49.9845 60.8023 49.8881C60.6072 49.563 60.2682 49.4884 59.9375 49.6947C59.5755 49.9207 59.3244 50.5071 59.4107 50.926C59.4803 51.264 59.7717 51.4123 60.1374 51.2734C60.2697 51.2231 60.3911 51.1298 60.4999 51.0354C60.6459 50.9094 60.7599 50.9747 60.8677 51.0738C60.9943 51.1909 60.8682 51.263 60.7992 51.3304C60.4497 51.6731 60.0307 51.7954 59.5525 51.6778C59.1476 51.5787 58.8933 51.2054 58.8975 50.7466Z" fill="white"/>
<path d="M21.3936 49.1763C21.516 49.2151 21.7253 49.2732 21.9288 49.3484C22.0575 49.3961 22.1245 49.492 22.0397 49.6283C21.9278 49.8093 21.8393 49.829 21.6908 49.7123C21.4705 49.5392 21.2246 49.4987 20.9861 49.6397C20.8898 49.6968 20.8077 49.8378 20.7936 49.9503C20.7842 50.0249 20.8909 50.1385 20.9735 50.194C21.0871 50.2697 21.2283 50.3044 21.3554 50.3609C21.7525 50.5377 21.8608 50.9006 21.6107 51.2542C21.2089 51.8219 20.3839 51.8421 19.8896 51.4476C19.8477 51.4139 19.8242 51.2765 19.8477 51.2583C19.9403 51.1868 19.9989 51.011 20.1736 51.1158C20.2757 51.1769 20.375 51.2469 20.4854 51.2879C20.7188 51.375 20.9432 51.3599 21.1341 51.1775C21.3188 51.0017 21.2822 50.7948 21.0452 50.6979C20.9474 50.658 20.8417 50.6357 20.7433 50.5968C20.25 50.3993 20.1412 49.8782 20.5231 49.5101C20.736 49.3053 20.9997 49.2006 21.3936 49.1763Z" fill="white"/>
<path d="M25.0107 51.6446C25.4518 50.8944 26.0968 50.2925 26.6335 49.5459C26.3343 49.5459 26.0842 49.5516 25.8352 49.5418C25.7772 49.5397 25.7212 49.4842 25.6647 49.4536C25.7159 49.365 25.7646 49.2011 25.8195 49.1985C26.3244 49.1788 26.8297 49.1866 27.3785 49.1866C27.3346 49.2841 27.3163 49.3593 27.2723 49.4147C26.9108 49.8715 26.543 50.3241 26.1795 50.7793C26.0325 50.9633 25.8907 51.151 25.7207 51.3708C26.0361 51.3708 26.3055 51.3745 26.5744 51.3698C26.7439 51.3667 26.791 51.4564 26.7486 51.5958C26.7335 51.6451 26.6634 51.712 26.6179 51.7125C26.0931 51.7208 25.5689 51.7177 25.0442 51.7177C25.0322 51.6938 25.0217 51.6689 25.0107 51.6446Z" fill="white"/>
<path d="M44.1401 49.2001C44.5398 49.1467 44.5859 49.1788 44.6596 49.5132C44.7161 49.7683 44.7758 50.0229 44.8443 50.3231C44.9191 50.2375 44.9672 50.1877 45.0091 50.1333C45.2021 49.8808 45.3926 49.6263 45.5861 49.3743C45.7446 49.1674 45.8911 49.128 46.1888 49.2224C46.1506 49.2851 46.1218 49.3468 46.0805 49.3981C45.8283 49.7134 45.5798 50.0322 45.3172 50.3391C45.041 50.6616 44.8992 51.0395 44.8113 51.4439C44.7988 51.502 44.7894 51.5627 44.7627 51.6145C44.6748 51.7866 44.5105 51.7446 44.3745 51.7187C44.2244 51.6902 44.2966 51.559 44.329 51.4937C44.635 50.8825 44.4096 50.2976 44.2558 49.7071C44.2129 49.5438 44.1799 49.3774 44.1401 49.2001Z" fill="white"/>
<path d="M69.3411 49.5423C69.1606 49.5423 69.0084 49.5469 68.8572 49.5407C68.7698 49.5371 68.6568 49.5568 68.6516 49.4147C68.6469 49.2784 68.7107 49.2001 68.8509 49.1975C69.2841 49.1902 69.7178 49.1861 70.1509 49.1814C70.2577 49.1804 70.3644 49.1814 70.4711 49.1835C70.5637 49.1856 70.6526 49.1991 70.638 49.3235C70.6249 49.4329 70.6009 49.5329 70.4507 49.5293C70.298 49.5257 70.1447 49.5392 69.9919 49.5371C69.8711 49.5355 69.8193 49.5858 69.7895 49.7035C69.6362 50.3049 69.4735 50.9042 69.3134 51.5041C69.2558 51.7192 69.0863 51.8115 68.8807 51.7208C68.8436 51.7042 68.8216 51.5907 68.8363 51.5326C68.9896 50.9177 69.1523 50.3044 69.3113 49.6911C69.3202 49.6532 69.3265 49.6149 69.3411 49.5423Z" fill="white"/>
<path d="M35.3211 49.5417C35.1469 49.5417 34.9946 49.5469 34.8429 49.5397C34.7498 49.5355 34.6258 49.5594 34.629 49.4033C34.6321 49.2571 34.7153 49.1902 34.8586 49.1887C35.0982 49.1866 35.3384 49.1825 35.578 49.1814C35.8641 49.1804 36.1513 49.1752 36.437 49.1882C36.5039 49.1913 36.5683 49.2602 36.6337 49.2986C36.5735 49.3676 36.5238 49.479 36.4511 49.4966C36.2921 49.5355 36.121 49.534 35.9551 49.5355C35.8427 49.5366 35.7888 49.5786 35.7611 49.6869C35.6313 50.1981 35.4963 50.7083 35.3608 51.2179C35.3289 51.3387 35.3007 51.4631 35.2484 51.5756C35.2196 51.6389 35.1537 51.712 35.0904 51.728C34.8262 51.796 34.7545 51.7114 34.8236 51.4512C34.9889 50.8285 35.1495 50.2038 35.3211 49.5417Z" fill="white"/>
<path d="M28.3261 49.2068C28.2529 49.4795 28.1838 49.7393 28.1132 49.999C27.9735 50.5144 27.8338 51.0297 27.692 51.5445C27.645 51.7161 27.4122 51.8151 27.273 51.713C27.2359 51.6855 27.2191 51.5932 27.2327 51.5409C27.4247 50.8083 27.6214 50.0763 27.8218 49.3458C27.8741 49.1545 27.9725 49.1285 28.3261 49.2068Z" fill="white"/>
<path d="M25.2686 49.2208C25.1865 49.5438 25.1075 49.8689 25.0206 50.1924C24.9024 50.6326 24.7789 51.0712 24.6565 51.5103C24.5958 51.7275 24.5247 51.7648 24.2914 51.7343C24.1627 51.7172 24.1585 51.6383 24.182 51.5492C24.3787 50.8021 24.576 50.055 24.7784 49.3095C24.8182 49.1638 25.0002 49.1332 25.2686 49.2208Z" fill="white"/>
<path d="M62.2713 49.2151C62.1913 49.5252 62.1133 49.8373 62.0296 50.1473C61.9025 50.6191 61.7717 51.0903 61.6409 51.5616C61.5959 51.7223 61.3312 51.8136 61.214 51.7016C61.1795 51.6684 61.1748 51.5792 61.1895 51.5243C61.3689 50.841 61.5557 50.1597 61.7382 49.4775C61.8225 49.1581 61.9098 49.1104 62.2713 49.2151Z" fill="white"/>
<path d="M33.6199 16.6765C36.7145 16.6765 39.2232 14.1877 39.2232 11.1176C39.2232 8.04759 36.7145 5.55882 33.6199 5.55882C30.5253 5.55882 28.0166 8.04759 28.0166 11.1176C28.0166 14.1877 30.5253 16.6765 33.6199 16.6765Z" fill="#022D56"/>
<path d="M46.2619 41.4166C52.4409 46.1469 61.325 45.066 66.1625 38.9727L80.6323 20.7431C82.039 18.971 81.7293 16.4042 79.9412 15.0106C78.1531 13.6165 75.563 13.9229 74.1567 15.6955L59.687 33.9251L59.6865 33.9246L59.687 33.9235L59.6875 33.923C59.6833 33.9282 59.6786 33.9339 59.6744 33.9391C57.5651 36.578 53.6556 36.9777 51.043 34.7722C48.6716 32.77 48.2436 29.243 50.0689 26.741C51.8727 24.2685 55.1905 23.5904 57.7879 24.9679C57.8926 25.0343 57.9998 25.0944 58.1081 25.1499C58.784 25.4967 59.5279 25.6409 60.2583 25.5963C60.2677 25.5957 60.2776 25.5952 60.287 25.5947C60.3393 25.5911 60.3917 25.5869 60.4434 25.5812C60.5277 25.5729 60.6119 25.5626 60.6956 25.5491C61.7367 25.3744 62.7144 24.8056 63.3804 23.8724C64.5423 22.244 64.3351 19.9799 62.8939 18.5884C62.4591 18.1685 61.9606 17.8662 61.4353 17.6739C61.4521 17.6801 61.4699 17.6843 61.4866 17.691C55.5259 14.6431 48.0291 16.1165 43.743 21.5534C38.9023 27.6939 40.0401 36.6532 46.2619 41.4166Z" fill="url(#paint1_linear_99_598)"/>
<path d="M103.124 17.0808C96.9454 12.3505 88.0613 13.4315 83.2238 19.5247L68.754 37.7543C67.3473 39.5264 67.6565 42.0932 69.4451 43.4868C71.2332 44.8809 73.8234 44.574 75.2296 42.8019L89.6993 24.5723L89.6998 24.5729L89.6993 24.5739L89.6988 24.5744C89.703 24.5692 89.7072 24.5635 89.7119 24.5583C91.8212 21.9195 95.7307 21.5197 98.3433 23.7252C100.715 25.7274 101.143 29.2544 99.3174 31.7564C97.5136 34.2289 94.1958 34.907 91.5984 33.5295C91.4937 33.4632 91.3865 33.403 91.2782 33.3475C90.6023 33.0007 89.8584 32.8566 89.128 32.9012C89.1186 32.9017 89.1087 32.9022 89.0993 32.9027C89.047 32.9064 88.9946 32.9105 88.9429 32.9162C88.8586 32.9245 88.7744 32.9349 88.6907 32.9483C87.6496 33.1231 86.6719 33.6918 86.0059 34.625C84.844 36.2534 85.0512 38.5175 86.4924 39.909C86.9277 40.3289 87.4257 40.6312 87.951 40.8235C87.9342 40.8173 87.9164 40.8132 87.8997 40.8064C93.8604 43.8544 101.357 42.3809 105.643 36.944C110.484 30.8035 109.347 21.8443 103.124 17.0808Z" fill="url(#paint2_linear_99_598)"/>
<path d="M6.57035 18.5579C6.66347 18.5496 6.74089 18.5371 6.81832 18.5366C10.0613 18.535 13.3043 18.534 16.5473 18.534C16.824 18.534 16.845 18.5584 16.845 18.8264C16.8439 19.9566 16.845 21.0873 16.8424 22.2176C16.8418 22.4488 16.8418 22.6992 16.8434 22.9304C16.8439 23.0082 16.8434 23.1886 16.8434 23.2695C16.9182 23.2119 17.0626 23.0704 17.116 23.0061C17.2975 22.7873 17.4555 22.5488 17.6375 22.3306C18.2931 21.5425 19.0359 20.8442 19.8955 20.2796C20.4584 19.91 21.0291 19.5434 21.6297 19.2412C22.1115 18.999 22.6399 18.8425 23.1557 18.6729C23.8049 18.4599 24.4761 18.3603 25.162 18.3665C25.4225 18.3691 25.434 18.3748 25.434 18.6325C25.4304 22.0501 25.4262 25.4677 25.4215 28.8853C25.4209 29.145 25.4126 29.1544 25.152 29.1549C24.0644 29.158 22.9758 29.1305 21.8897 29.173C21.2828 29.1969 20.6765 29.3135 20.0775 29.4291C19.6977 29.5022 19.3237 29.6267 18.9632 29.7692C18.2826 30.0378 17.7485 30.4831 17.3943 31.1322C17.1453 31.5885 17.0197 32.0753 16.9125 32.5813C16.687 33.6508 16.788 34.7282 16.7806 35.8008C16.7608 38.5709 16.7717 41.3404 16.7764 44.1105C16.777 44.3023 16.7173 44.3593 16.5259 44.3593C13.2829 44.3552 10.0399 44.3552 6.79687 44.3599C6.62266 44.3599 6.57139 44.3116 6.57139 44.1354C6.57401 35.68 6.57139 27.2247 6.56982 18.7694C6.57035 18.7056 6.57035 18.6403 6.57035 18.5579Z" fill="url(#paint3_linear_99_598)"/>
<path d="M38.4117 44.3609H28.2547C28.1951 44.3609 28.147 44.3132 28.147 44.2541V18.2826C28.147 18.2235 28.1951 18.1758 28.2547 18.1758H38.4111C38.4708 18.1758 38.5189 18.2235 38.5189 18.2826V44.2536C38.5189 44.3132 38.4708 44.3609 38.4117 44.3609Z" fill="url(#paint4_linear_99_598)"/>
<defs>
<linearGradient id="paint0_linear_99_598" x1="54.7969" y1="53.1573" x2="54.7969" y2="47.7588" gradientUnits="userSpaceOnUse">
<stop stop-color="#2369AC"/>
<stop offset="1" stop-color="#022D56"/>
</linearGradient>
<linearGradient id="paint1_linear_99_598" x1="61.1276" y1="44.646" x2="61.1276" y2="14.7545" gradientUnits="userSpaceOnUse">
<stop stop-color="#2369AC"/>
<stop offset="1" stop-color="#022D56"/>
</linearGradient>
<linearGradient id="paint2_linear_99_598" x1="88.2588" y1="43.9141" x2="88.2588" y2="11.7091" gradientUnits="userSpaceOnUse">
<stop stop-color="#2369AC"/>
<stop offset="1" stop-color="#022D56"/>
</linearGradient>
<linearGradient id="paint3_linear_99_598" x1="16.0024" y1="44.3607" x2="16.0024" y2="18.3669" gradientUnits="userSpaceOnUse">
<stop stop-color="#2369AC"/>
<stop offset="1" stop-color="#022D56"/>
</linearGradient>
<linearGradient id="paint4_linear_99_598" x1="33.3332" y1="44.3608" x2="33.3332" y2="18.1761" gradientUnits="userSpaceOnUse">
<stop stop-color="#2369AC"/>
<stop offset="1" stop-color="#022D56"/>
</linearGradient>
</defs>
</svg>
